<svg width="158" height="25" viewBox="0 0 158 25" fill="none" xmlns="http://www.w3.org/2000/svg">
<path d="M10.4542 16.918C10.6709 17.4624 10.6022 18.16 10.4965 18.5828C10.3115 19.3333 9.8041 20.0997 8.3031 20.0997C6.89723 20.0997 6.04102 19.2858 6.04102 18.0596V15.8768H7.62939e-06V17.6104C7.62939e-06 22.6313 3.94807 24.1482 8.18154 24.1482C12.2512 24.1482 15.602 22.7635 16.1358 19.0057C16.4106 17.0607 16.2098 15.787 16.1147 15.3166C15.1633 10.6022 6.6224 9.19628 5.98288 6.55895C5.89409 6.16996 5.88669 5.7667 5.96174 5.37506C6.1203 4.65099 6.61183 3.86349 8.0177 3.86349C9.339 3.86349 10.1054 4.67741 10.1054 5.90358V7.29888H15.7236V5.71332C15.7236 0.808625 11.321 0.0422668 8.13926 0.0422668C4.13306 0.0422668 0.8615 1.36886 0.264269 5.04209C0.105712 6.04629 0.0792861 6.94477 0.317121 8.07581C1.29489 12.674 9.29144 14.0058 10.4542 16.918Z" fill="black" style="fill:black;fill:black;fill-opacity:1;"/>
<path d="M24.1006 0.761053L19.9253 23.2708H26.0086L29.0899 2.84343H29.2167L32.2135 23.2708H38.2651L34.1162 0.755768L24.1006 0.761053ZM58.1111 0.761053L55.3363 17.9698H55.2042L52.4347 0.761053H43.2543L42.7575 23.2708H48.3915L48.529 3.0337H48.6558L52.4136 23.2708H58.1269L61.89 3.03899H62.0116L62.1543 23.2708H67.7831L67.2862 0.755768L58.1111 0.761053Z" fill="black" style="fill:black;fill:black;fill-opacity:1;"/>
<path d="M83.6387 16.8757C83.8554 17.4201 83.7867 18.1178 83.681 18.5406C83.496 19.2911 82.9887 20.0574 81.4876 20.0574C80.0818 20.0574 79.2256 19.2435 79.2256 18.0173V15.8345H73.1846V17.5681C73.1846 22.5891 77.1326 24.1059 81.3661 24.1059C85.4357 24.1059 88.7865 22.7212 89.3204 18.9634C89.5952 17.0184 89.3943 15.7447 89.2992 15.2743C88.3479 10.5599 79.8069 9.15401 79.1674 6.51669C79.0786 6.12769 79.0712 5.72443 79.1463 5.33279C79.3048 4.60872 79.7964 3.82122 81.2022 3.82122C82.5236 3.82122 83.2899 4.63514 83.2899 5.86132V7.25662H88.9081V5.67105C88.9081 0.766358 84.5055 0 81.3238 0C77.3176 0 74.046 1.32659 73.4488 4.99983C73.2903 6.00402 73.2638 6.90251 73.5017 8.03355C74.4794 12.6317 82.476 13.9636 83.6387 16.8757Z" fill="black" style="fill:black;fill:black;fill-opacity:1;"/>
<path d="M102.533 19.8989C104.098 19.8989 104.579 18.8207 104.69 18.271C104.737 18.0279 104.743 17.7002 104.743 17.4095V0.761066H110.44V16.8969C110.441 17.3905 110.424 17.8841 110.387 18.3767C109.991 22.5785 106.672 23.9421 102.533 23.9421C98.3898 23.9421 95.0707 22.5785 94.6743 18.3767C94.6584 18.1547 94.6161 17.3091 94.6214 16.8969V0.755781H100.319V17.4042C100.314 17.7002 100.324 18.0279 100.372 18.271C100.477 18.8207 100.964 19.8989 102.533 19.8989ZM130.059 0.761066L130.365 18.4296H130.244L125.064 0.761066H116.714V23.033H122.247L121.941 4.75141H122.062L127.617 23.033H135.635V0.761066H130.059ZM149.482 19.6663C151.11 19.6663 151.681 18.6357 151.781 18.0279C151.829 17.7795 151.834 17.4624 151.834 17.1823V13.9054H149.524V10.6286H157.5V16.6643C157.5 17.0871 157.489 17.3937 157.421 18.1442C157.051 22.2455 153.494 23.7095 149.503 23.7095C145.513 23.7095 141.961 22.2455 141.586 18.1442C141.523 17.3937 141.507 17.0871 141.507 16.6643V7.19319C141.507 6.79151 141.56 6.08329 141.602 5.71332C142.104 1.501 145.513 0.14798 149.503 0.14798C153.494 0.14798 156.992 1.49043 157.405 5.70804C157.479 6.42683 157.458 7.1879 157.458 7.1879V7.94369H151.781V6.68052C151.781 6.68052 151.781 6.152 151.712 5.82431C151.607 5.3275 151.184 4.18589 149.461 4.18589C147.823 4.18589 147.342 5.26936 147.22 5.82431C147.151 6.12029 147.125 6.52196 147.125 6.88664V17.177C147.125 17.4624 147.135 17.7795 147.178 18.0332C147.283 18.6357 147.854 19.6663 149.482 19.6663Z" fill="black" style="fill:black;fill:black;fill-opacity:1;"/>
</svg>
